<svg width="1100" height="760" viewBox="0 0 1100 760" fill="none" xmlns="http://www.w3.org/2000/svg">
<defs><linearGradient id="bg" x1="0" y1="0" x2="1100" y2="760" gradientUnits="userSpaceOnUse"><stop stop-color="#E9FFF8"/><stop offset=".55" stop-color="#F5FBFF"/><stop offset="1" stop-color="#FFF7ED"/></linearGradient><linearGradient id="g1" x1="279" y1="162" x2="786" y2="701" gradientUnits="userSpaceOnUse"><stop stop-color="#14B8A6"/><stop offset="1" stop-color="#2563EB"/></linearGradient><filter id="shadow" x="-20%" y="-20%" width="140%" height="140%"><feDropShadow dx="0" dy="30" stdDeviation="28" flood-color="#0F172A" flood-opacity=".18"/></filter></defs>
<rect width="1100" height="760" rx="56" fill="url(#bg)"/>
<circle cx="923" cy="139" r="91" fill="#CCFBF1"/><circle cx="141" cy="609" r="126" fill="#DBEAFE"/><circle cx="1002" cy="629" r="73" fill="#FED7AA"/>
<g filter="url(#shadow)"><rect x="142" y="112" width="816" height="536" rx="42" fill="white" fill-opacity=".86"/><rect x="177" y="151" width="267" height="154" rx="30" fill="#0F766E"/><path d="M214 260c26-52 48-58 75-25 30 37 57 31 83-36 19 58 42 78 71 60" stroke="#99F6E4" stroke-width="14" stroke-linecap="round" stroke-linejoin="round"/><circle cx="222" cy="196" r="22" fill="#FDE68A"/>
<rect x="481" y="151" width="301" height="154" rx="30" fill="#EFF6FF"/><path d="M526 254h214" stroke="#CBD5E1" stroke-width="13" stroke-linecap="round"/><path d="M526 209h154" stroke="#94A3B8" stroke-width="13" stroke-linecap="round"/><circle cx="730" cy="203" r="28" fill="#14B8A6"/><path d="M716 203h28M730 189v28" stroke="white" stroke-width="8" stroke-linecap="round"/>
<rect x="177" y="337" width="606" height="270" rx="34" fill="#F8FAFC"/><path d="M238 555c34-97 66-140 99-129 43 15 37 99 92 105 55 5 61-147 124-152 65-5 74 135 150 96" stroke="url(#g1)" stroke-width="18" stroke-linecap="round" stroke-linejoin="round"/><path d="M231 393h143" stroke="#94A3B8" stroke-width="14" stroke-linecap="round"/><path d="M231 430h90" stroke="#CBD5E1" stroke-width="12" stroke-linecap="round"/>
<rect x="811" y="203" width="102" height="348" rx="36" fill="#111827"/><rect x="824" y="227" width="76" height="300" rx="28" fill="#F8FAFC"/><circle cx="862" cy="489" r="18" fill="#14B8A6"/><path d="M843 290h38M843 326h38M843 362h38" stroke="#64748B" stroke-width="10" stroke-linecap="round"/>
</g>
<g filter="url(#shadow)"><circle cx="286" cy="595" r="58" fill="#F59E0B"/><path d="M266 594l18 18 37-43" stroke="white" stroke-width="13" stroke-linecap="round" stroke-linejoin="round"/></g>
</svg>
